<svg xmlns="http://www.w3.org/2000/svg" fill="none" viewBox="0 0 24 24" id="Whatsapp-Monochrome-Icon--Streamline-Svg-Logos" height="24" width="24">
  <desc>
    Whatsapp Monochrome Icon Streamline Icon: https://streamlinehq.com
  </desc>
  <path fill="#455a64" d="M12.048775 0.25c3.115075 0.0015325 6.0389 1.214215 8.237375 3.415175 2.1986 2.200975 3.4087 5.1269 3.407525 8.238075 -0.002575 6.3565 -5.122925 11.54005 -11.452475 11.643075l-0.192175 0.00155h-0.004825c-1.919 -0.000675 -3.80505 -0.47455 -5.4861 -1.374525l-0.078625 -0.0425L0.306275 23.75l1.6520475 -6.034525c-1.01894 -1.7656 -1.5551175 -3.76905 -1.5542925 -5.82155C0.4066225 5.473575 5.63045 0.25 12.048775 0.25Zm0.004025 1.9668925c-5.338675 0 -9.68058 4.3415575 -9.682705 9.6779825 -0.000695 1.800875 0.495555 3.55575 1.436055 5.080625l0.043725 0.0702 0.230175 0.36625 -0.9778 3.571425 3.663175 -0.9608 0.3534 0.20955c1.462425 0.8678 3.13545 1.3337 4.843525 1.34885l0.082675 0.000375h0.004c5.33455 0 9.676325 -4.3419 9.678575 -9.6787 0.00095 -2.586075 -1.0048 -5.017925 -2.8322 -6.847325 -1.827375 -1.8294 -4.25745 -2.8376075 -6.8426 -2.8384325ZM7.926225 6.51645c0.19385 0 0.388175 0.001775 0.557625 0.0105 0.17865 0.008725 0.4185 -0.067925 0.654575 0.4994 0.09055 0.217425 0.2284 0.5533 0.369425 0.896425l0.030225 0.0736c0.226975 0.55225 0.45395 1.1028 0.4976 1.19025 0.072625 0.145525 0.1211 0.315675 0.024175 0.50965 -0.096925 0.194325 -0.145525 0.31555 -0.290925 0.4857 -0.1455 0.1697 -0.305525 0.37935 -0.4364 0.50965 -0.007125 0.007075 -0.01425 0.0142 -0.02135 0.02135l-0.021175 0.0216c-0.12975 0.1342 -0.2383 0.288025 -0.085075 0.55065 0.1697 0.291375 0.753625 1.2444 1.618575 2.015825 1.111375 0.99125 2.04895 1.29855 2.33985 1.444275 0.290925 0.14565 0.460725 0.12135 0.6304 -0.0731 0.1698 -0.193975 0.727325 -0.849375 0.9213 -1.14075 0.193975 -0.29125 0.38795 -0.24255 0.6547 -0.1455 0.12675 0.046125 0.516575 0.2294 0.92195 0.424675l0.126025 0.060825c0.40595 0.1964 0.80185 0.3918 0.94015 0.461025 0.291025 0.14575 0.485 0.2185 0.557625 0.339725 0.07275 0.121575 0.07275 0.703975 -0.169675 1.383675 -0.24245 0.679675 -1.4049 1.30005 -1.96395 1.38365 -0.501275 0.074775 -1.135575 0.106025 -1.832575 -0.115325 -0.422525 -0.134175 -0.9646 -0.3132 -1.658775 -0.61295 -2.91875 -1.2602 -4.825025 -4.199325 -4.970425 -4.3933l-0.0099 -0.013225c-0.1773 -0.237025 -1.17825 -1.5937 -1.17825 -2.9969 0 -1.432025 0.75175 -2.136 1.01835 -2.42725 0.26675 -0.291025 0.581925 -0.36415 0.775925 -0.36415Z" stroke-width="0.25"></path>
</svg>